<?xml version="1.0" standalone="no"?>
<!DOCTYPE svg PUBLIC "-//W3C//DTD SVG 20010904//EN"
 "http://www.w3.org/TR/2001/REC-SVG-20010904/DTD/svg10.dtd">
<svg version="1.0" xmlns="http://www.w3.org/2000/svg"
 width="209.000000pt" height="225.000000pt" viewBox="0 0 209.000000 225.000000"
 preserveAspectRatio="xMidYMid meet">

<g transform="translate(0.000000,225.000000) scale(0.100000,-0.100000)"
fill="#000000" stroke="none">
<path d="M1039 2180 c-44 -8 -245 -116 -502 -270 -245 -147 -247 -149 -259
-322 -5 -68 -8 -265 -6 -438 3 -302 4 -317 25 -357 29 -54 100 -90 197 -99
l69 -7 -8 309 c-15 551 -16 544 70 630 42 42 87 69 249 149 124 60 205 95 218
92 26 -7 348 -189 348 -197 0 -8 -165 -104 -221 -128 -104 -45 -158 -123 -159
-229 0 -70 17 -160 31 -169 17 -10 610 326 649 368 52 56 47 221 -9 310 -24
37 -55 59 -232 160 -337 193 -383 213 -460 198z"/>
<path d="M860 1584 c-130 -47 -146 -66 -155 -179 -4 -48 -5 -239 -3 -424 6
-389 4 -382 96 -459 116 -96 219 -127 330 -98 76 19 111 36 391 195 243 137
312 190 330 257 22 79 7 294 -25 355 -24 47 -70 71 -127 66 -38 -3 -65 -16
-133 -62 l-85 -58 45 -46 c57 -58 72 -101 50 -147 -18 -38 -42 -57 -184 -146
-163 -101 -221 -128 -280 -128 -57 0 -76 14 -111 82 -21 42 -22 56 -27 436 -3
215 -8 392 -11 391 -3 0 -49 -16 -101 -35z"/>
<path d="M626 222 c-3 -6 -1 -14 5 -17 15 -10 25 3 12 16 -7 7 -13 7 -17 1z"/>
<path d="M1246 222 c-3 -6 -1 -14 5 -17 15 -10 25 3 12 16 -7 7 -13 7 -17 1z"/>
<path d="M1466 222 c-3 -6 -1 -14 5 -17 15 -10 25 3 12 16 -7 7 -13 7 -17 1z"/>
<path d="M1756 223 c-3 -3 -6 -42 -6 -85 0 -63 3 -78 15 -78 12 0 15 15 15 79
0 74 -7 100 -24 84z"/>
<path d="M327 213 c-4 -3 -7 -40 -7 -80 l0 -74 61 3 c69 3 94 22 72 56 -6 10
-8 31 -5 47 3 20 0 32 -13 42 -19 13 -96 18 -108 6z m100 -29 c8 -21 -24 -46
-52 -42 -13 2 -21 12 -23 31 -3 25 -1 27 33 27 24 0 38 -5 42 -16z m2 -63 c20
-13 6 -39 -24 -47 -36 -9 -55 2 -55 31 0 22 4 25 33 25 17 0 38 -4 46 -9z"/>
<path d="M1068 214 c-5 -4 -8 -40 -8 -81 l0 -73 55 0 c42 0 60 5 75 20 30 30
30 83 0 114 -19 20 -109 34 -122 20z m100 -30 c26 -18 30 -65 6 -88 -8 -9 -31
-16 -50 -16 l-34 0 0 60 c0 59 0 60 28 60 15 0 38 -7 50 -16z"/>
<path d="M1522 180 c-7 -12 -8 -20 -2 -20 5 0 10 -17 10 -38 0 -41 14 -62 42
-62 24 0 23 16 -2 23 -30 8 -28 64 3 77 l22 9 -22 7 c-13 3 -23 10 -23 15 0
16 -15 10 -28 -11z"/>
<path d="M505 155 c-30 -29 -31 -49 -4 -76 14 -14 30 -19 51 -17 44 4 45 23 1
23 -20 0 -38 6 -40 13 -3 8 9 12 41 12 39 0 46 3 46 19 0 21 -35 51 -58 51 -7
0 -24 -11 -37 -25z m59 -1 c28 -11 17 -24 -19 -24 -34 0 -47 13 -22 23 18 8
23 8 41 1z"/>
<path d="M637 173 c-11 -10 -8 -113 3 -113 6 0 10 27 10 60 0 61 -1 65 -13 53z"/>
<path d="M694 171 c-2 -2 -4 -28 -4 -58 0 -40 4 -53 15 -53 11 0 15 12 15 44
0 36 4 46 20 51 31 10 40 -2 40 -51 0 -34 4 -44 16 -44 14 0 16 8 11 46 -2 25
-10 51 -16 57 -11 11 -87 17 -97 8z"/>
<path d="M860 160 c-42 -42 -10 -107 50 -98 19 3 29 1 27 -6 -2 -6 -23 -13
-48 -16 -32 -4 -39 -7 -26 -12 28 -12 71 -10 85 4 7 7 12 41 12 81 0 59 -2 68
-14 58 -10 -8 -16 -9 -21 -1 -10 16 -43 12 -65 -10z m70 -14 c19 -23 8 -61
-18 -64 -44 -7 -67 32 -36 62 19 20 38 20 54 2z"/>
<path d="M1257 173 c-11 -10 -8 -113 3 -113 6 0 10 27 10 60 0 61 -1 65 -13
53z"/>
<path d="M1320 160 c-42 -42 -10 -107 50 -98 19 3 29 1 27 -6 -2 -6 -23 -13
-48 -16 -32 -4 -39 -7 -26 -12 28 -12 71 -10 85 4 7 7 12 41 12 81 0 59 -2 68
-14 58 -10 -8 -16 -9 -21 -1 -10 16 -43 12 -65 -10z m70 -14 c19 -23 8 -61
-18 -64 -44 -7 -67 32 -36 62 19 20 38 20 54 2z"/>
<path d="M1466 173 c-3 -3 -6 -30 -6 -60 0 -40 4 -53 15 -53 11 0 15 13 15 54
0 51 -9 74 -24 59z"/>
<path d="M1638 173 c-30 -8 -20 -21 13 -19 18 0 34 -5 36 -11 3 -8 -4 -13 -19
-13 -13 0 -33 -6 -44 -14 -32 -24 -7 -51 51 -53 l47 -2 -5 47 c-7 60 -29 78
-79 65z m52 -77 c0 -8 -6 -16 -12 -19 -18 -6 -50 12 -43 24 10 15 55 11 55 -5z"/>
</g>
</svg>
